# xmcd
#
# Track frame offsets: 
#        150
#        9446
#        22056
#        32082
#        43554
#        51735
#        63012
#        73000
#        81421
#        93124
#        101857
#        112684
#        123387
#        132136
#        144961
#        153726
#        162920
#        172199
#        181039
#        192128
#        203086
#        213789
#        224273
#        235837
#        239026
#        240352
#        252079
#        253452
#        255930
#        260131
#        267771
#        270377
#        276956
#
# Disc length: 3810 seconds
#
# Revision: 0
# Processed by: cddbd v1.5.2PL0 Copyright (c) Steve Scherf et al.
# Submitted via: ExactAudioCopy v0.99pb5
#
DISCID=da0ee021
DTITLE=Elvis Presley  - FTD 63 - 50,000,000 Elvis Fans Can't Be Wrong-
DTITLE=Elvis' Gold Records, Vol. 2 , CD 1  
DYEAR=1900
DGENRE=
TTITLE0=I Need Your Love Tonight
TTITLE1=Don't
TTITLE2=Wear My Ring Around Your Neck
TTITLE3=My Wish Came True
TTITLE4=I Got Stung
TTITLE5=One Night
TTITLE6=A Big Hunk o' Love
TTITLE7=I Beg of You
TTITLE8=(Now and Then There's) a Fool Such As I
TTITLE9=Doncha' Think It's Time
TTITLE10=Your Cheatin' Heart
TTITLE11=Ain't That Loving You Baby
TTITLE12=Doncha' Think It's Time (Single Master)
TTITLE13=Your Cheatin' Heart (Take 9)
TTITLE14=Doncha' Think It's Time (Take 39)
TTITLE15=Doncha' Think It's Time (Take 40)
TTITLE16=Doncha' Think It's Time (Take 47)
TTITLE17=Doncha' Think It's Time (Take 48)
TTITLE18=A Big Hunk o' Love (Take 1 Pb)
TTITLE19=A Big Hunk o' Love (Take 2 Pb)
TTITLE20=A Big Hunk o' Love (Take 3 Pb)
TTITLE21=A Big Hunk o' Love (Take 4 Pb)
TTITLE22=Ain't That Loving You Baby (Take 1 Pb)
TTITLE23=Ain't That Loving You Baby (Take 2 Lfs)
TTITLE24=Ain't That Loving You Baby (Take 3 Fs)
TTITLE25=Ain't That Loving You Baby (Take 4 Master)
TTITLE26=Ain't That Loving You Baby (Take 5 Fs)
TTITLE27=Ain't That Loving You Baby (Take 6 Lfs)
TTITLE28=Ain't That Loving You Baby (Take 7 Lfs)
TTITLE29=Ain't That Loving You Baby (Take 8 Lfs)
TTITLE30=Ain't That Loving You Baby (Take 9 Lfs)
TTITLE31=Ain't That Loving You Baby (Take 10 Lfs)
TTITLE32=Ain't That Loving You Baby (Take 11 Lfs)
EXTD=
EXTT0=
EXTT1=
EXTT2=
EXTT3=
EXTT4=
EXTT5=
EXTT6=
EXTT7=
EXTT8=
EXTT9=
EXTT10=
EXTT11=
EXTT12=
EXTT13=
EXTT14=
EXTT15=
EXTT16=
EXTT17=
EXTT18=
EXTT19=
EXTT20=
EXTT21=
EXTT22=
EXTT23=
EXTT24=
EXTT25=
EXTT26=
EXTT27=
EXTT28=
EXTT29=
EXTT30=
EXTT31=
EXTT32=
PLAYORDER=
